<svg xmlns="http://www.w3.org/2000/svg" width="1024" height="768"><g style="font-style:normal;font-weight:400;font-size:72px;line-height:1;font-family:&quot;Brandmark Sans 39&quot;;font-variant-ligatures:normal;text-align:center;text-anchor:middle"><path fill="#eebb2a" d="M422.81 0h6.48v-17.28h2.737a9.188 9.188 0 0 0 9.216-9.216v-13.248a9.188 9.188 0 0 0-9.216-9.216h-9.216zm6.337-23.472v-19.296h2.88c1.656 0 2.88 1.368 2.88 3.024v13.248c0 1.656-1.224 3.024-2.88 3.024z" style="font-style:normal;font-weight:400;font-size:72px;line-height:1;font-family:&quot;Brandmark Sans 39&quot;;font-variant-ligatures:normal;text-align:center;text-anchor:middle" transform="matrix(1.82 0 0 1.82 -419.892 428.685)"/><path fill="#eeb129" d="M444.467-40.104V0h6.336v-21.456h5.76V0h6.336v-40.104a9.188 9.188 0 0 0-9.216-9.216 9.188 9.188 0 0 0-9.216 9.216zm6.336 12.528v-12.528c0-1.656 1.224-3.024 2.88-3.024s2.88 1.368 2.88 3.024v12.528z" style="font-style:normal;font-weight:400;font-size:72px;line-height:1;font-family:&quot;Brandmark Sans 39&quot;;font-variant-ligatures:normal;text-align:center;text-anchor:middle" transform="matrix(1.82 0 0 1.82 -419.892 428.685)"/><path fill="#efa728" d="M472.46-26.64h5.76v-16.92h6.335v-5.4h-18.432v5.4h6.336zm-6.337 9.72h6.336V0h5.76v-16.92h6.336v-5.4h-18.432z" style="font-style:normal;font-weight:400;font-size:72px;line-height:1;font-family:&quot;Brandmark Sans 39&quot;;font-variant-ligatures:normal;text-align:center;text-anchor:middle" transform="matrix(1.82 0 0 1.82 -419.892 428.685)"/><path fill="#ef9d27" d="M497.643-22.32h-9.864V0h5.76v-6.048h2.736c2.376 0 3.6 1.44 3.6 4.032V0h6.336v-1.8c0-2.736-2.088-5.328-5.256-6.408v-.864c3.024-.936 5.112-3.096 5.112-5.904v-.504c0-3.96-2.52-6.84-8.424-6.84zm-9.864-8.64c0 2.52 1.872 4.392 4.392 4.392h14.04v-5.4H494.62c-.576 0-1.08-.504-1.08-1.08v-2.376h11.232v-4.68H493.54v-3.384h12.672v-5.4H487.78zm5.76 19.8v-5.76h4.032c2.016 0 3.456 1.296 3.456 2.88 0 1.584-1.44 2.88-3.456 2.88z" style="font-style:normal;font-weight:400;font-size:72px;line-height:1;font-family:&quot;Brandmark Sans 39&quot;;font-variant-ligatures:normal;text-align:center;text-anchor:middle" transform="matrix(1.82 0 0 1.82 -419.892 428.685)"/><path fill="#f09326" d="m523.548-18.864.216 1.08h-.72l-7.272-31.176h-6.336V0h6.336v-15.192l-2.016-14.904-.216-1.08h.648L521.532 0h6.336v-48.96h-6.336v15.192z" style="font-style:normal;font-weight:400;font-size:72px;line-height:1;font-family:&quot;Brandmark Sans 39&quot;;font-variant-ligatures:normal;text-align:center;text-anchor:middle" transform="matrix(1.82 0 0 1.82 -419.892 428.685)"/><path fill="#f08924" d="M537.356-9.504c4.104 0 5.832-4.752 5.832-7.056v6.84h6.336v-39.24h-6.336v30.384c0 1.656-1.224 3.024-2.88 3.024s-2.88-1.368-2.88-3.024V-48.96h-6.336v31.032c0 4.896 2.52 8.424 6.264 8.424zM531.092 0h18.432v-6.12h-18.432z" style="font-style:normal;font-weight:400;font-size:72px;line-height:1;font-family:&quot;Brandmark Sans 39&quot;;font-variant-ligatures:normal;text-align:center;text-anchor:middle" transform="matrix(1.82 0 0 1.82 -419.892 428.685)"/><path fill="#f07f23" d="M552.748-40.104v31.896c0 4.896 2.52 8.424 6.264 8.424 4.104 0 5.832-4.752 5.832-7.056V0h6.336v-27.576h-9.288v6.12h2.952v12.6c0 1.656-1.224 3.024-2.88 3.024s-2.88-1.368-2.88-3.024v-31.248c0-1.656 1.224-3.024 2.88-3.024s2.88 1.368 2.88 3.024v7.704h6.336v-7.704a9.188 9.188 0 0 0-9.216-9.216 9.188 9.188 0 0 0-9.216 9.216z" style="font-style:normal;font-weight:400;font-size:72px;line-height:1;font-family:&quot;Brandmark Sans 39&quot;;font-variant-ligatures:normal;text-align:center;text-anchor:middle" transform="matrix(1.82 0 0 1.82 -419.892 428.685)"/><path fill="#f17522" d="M574.404 0h6.336v-48.96h-6.336z" style="font-style:normal;font-weight:400;font-size:72px;line-height:1;font-family:&quot;Brandmark Sans 39&quot;;font-variant-ligatures:normal;text-align:center;text-anchor:middle" transform="matrix(1.82 0 0 1.82 -419.892 428.685)"/><path fill="#f16b21" d="M589.439 0h6.336v-42.84h5.472v-6.12h-17.28v6.12h5.472z" style="font-style:normal;font-weight:400;font-size:72px;line-height:1;font-family:&quot;Brandmark Sans 39&quot;;font-variant-ligatures:normal;text-align:center;text-anchor:middle" transform="matrix(1.82 0 0 1.82 -419.892 428.685)"/></g></svg>